<svg width="232" height="232" viewBox="0 0 232 232" fill="none" xmlns="http://www.w3.org/2000/svg"><circle cx="116" cy="116" r="116" fill="#282828"/><g clip-path="url(#a)"><path d="M110.699 93.113a13.164 13.164 0 0 1 15.006 3.156c1.263 1.377 2.139 2.976 2.712 4.662.429 1.263.789 3.519.66 5.682-.234 3.966-1.914 7.224-4.197 9.948l-.381.456a2.251 2.251 0 0 0 .603 3.39l6.627 3.825a14.25 14.25 0 0 1 7.125 12.342V140H93.146v-3.429a14.25 14.25 0 0 1 7.125-12.339l6.627-3.825a2.242 2.242 0 0 0 1.09-1.555 2.242 2.242 0 0 0-.487-1.835l-.378-.456c-2.283-2.724-3.966-5.982-4.2-9.948-.129-2.163.231-4.419.66-5.682a13.036 13.036 0 0 1 2.712-4.662 13.155 13.155 0 0 1 4.404-3.156ZM116 96.5a8.665 8.665 0 0 0-6.39 2.811 8.556 8.556 0 0 0-1.764 3.066c-.231.678-.525 2.349-.429 3.969.162 2.763 1.32 5.136 3.153 7.326l.006.003.381.459a6.75 6.75 0 0 1-1.809 10.17l-6.627 3.825a9.754 9.754 0 0 0-4.815 7.371h36.588a9.756 9.756 0 0 0-4.815-7.371l-6.627-3.825a6.75 6.75 0 0 1-1.809-10.17l.381-.459.006-.003c1.836-2.19 2.991-4.56 3.156-7.326.096-1.62-.201-3.291-.432-3.969a8.556 8.556 0 0 0-1.764-3.066A8.666 8.666 0 0 0 116 96.5Z" fill="#7F7F7F"/></g><defs><clipPath id="a"><path fill="#fff" transform="translate(92 92)" d="M0 0h48v48H0z"/></clipPath></defs></svg>